# Blender v2.76 (sub 0) OBJ File: 'groundPlane.blend'
# www.blender.org
mtllib groundPlane.mtl
o Plane
v -32.194073 -0.319511 32.332264
v 32.598614 -0.319511 32.332264
v -32.194073 -0.319511 -32.460423
v 32.598614 -0.319511 -32.460423
v -32.194073 -0.319511 -0.064079
v 0.202271 -0.319511 32.332264
v 32.598614 -0.319511 -0.064079
v 0.202271 -0.319511 -32.460423
v 0.202271 -0.319511 -0.064079
v -32.194073 -0.319511 16.134092
v 16.400442 -0.319511 32.332264
v 32.598614 -0.319511 -16.262251
v -15.995901 -0.319511 -32.460423
v -32.194073 -0.319511 -16.262251
v -15.995901 -0.319511 32.332264
v 32.598614 -0.319511 16.134092
v 16.400442 -0.319511 -32.460423
v 0.202271 -0.319511 -16.262251
v 0.202271 -0.319511 16.134092
v -15.995901 -0.319511 -0.064079
v 16.400442 -0.319511 -0.064079
v 16.400442 -0.319511 16.134092
v -15.995901 -0.319511 16.134092
v -15.995901 -0.319511 -16.262251
v 16.400442 -0.319511 -16.262251
v -32.194073 -0.319511 24.233177
v 24.499527 -0.319511 32.332264
v 32.598614 -0.319511 -24.361336
v -24.094986 -0.319511 -32.460423
v -32.194073 -0.319511 -8.163165
v -7.896815 -0.319511 32.332264
v 32.598614 -0.319511 8.035007
v 8.301356 -0.319511 -32.460423
v 0.202271 -0.319511 -24.361336
v 0.202271 -0.319511 8.035007
v -24.094986 -0.319511 -0.064079
v 8.301356 -0.319511 -0.064079
v -32.194073 -0.319511 8.035007
v 8.301356 -0.319511 32.332264
v 32.598614 -0.319511 -8.163165
v -7.896815 -0.319511 -32.460423
v -32.194073 -0.319511 -24.361336
v -24.094986 -0.319511 32.332264
v 32.598614 -0.319511 24.233177
v 24.499527 -0.319511 -32.460423
v 0.202271 -0.319511 -8.163165
v 0.202271 -0.319511 24.233177
v -7.896815 -0.319511 -0.064079
v 24.499527 -0.319511 -0.064079
v 16.400442 -0.319511 8.035007
v 16.400442 -0.319511 24.233177
v 8.301356 -0.319511 16.134092
v 24.499527 -0.319511 16.134092
v -15.995901 -0.319511 8.035007
v -15.995901 -0.319511 24.233177
v -24.094986 -0.319511 16.134092
v -7.896815 -0.319511 16.134092
v -15.995901 -0.319511 -24.361336
v -15.995901 -0.319511 -8.163165
v -24.094986 -0.319511 -16.262251
v -7.896815 -0.319511 -16.262251
v 16.400442 -0.319511 -24.361336
v 16.400442 -0.319511 -8.163165
v 8.301356 -0.319511 -16.262251
v 24.499527 -0.319511 -16.262251
v 24.499527 -0.319511 -8.163165
v 8.301356 -0.319511 -8.163165
v 8.301356 -0.319511 -24.361336
v -7.896815 -0.319511 -8.163165
v -24.094986 -0.319511 -8.163165
v -24.094986 -0.319511 -24.361336
v -7.896815 -0.319511 24.233177
v -24.094986 -0.319511 24.233177
v -24.094986 -0.319511 8.035007
v 24.499527 -0.319511 24.233177
v 8.301356 -0.319511 24.233177
v 8.301356 -0.319511 8.035007
v 24.499527 -0.319511 8.035007
v -7.896815 -0.319511 8.035007
v -7.896815 -0.319511 -24.361336
v 24.499527 -0.319511 -24.361336
vt 0.874925 0.874925
vt 0.999900 0.874925
vt 0.999900 0.999900
vt 0.874925 0.999900
vt 0.375025 0.874925
vt 0.500000 0.874925
vt 0.500000 0.999900
vt 0.375025 0.999900
vt 0.375025 0.375025
vt 0.500000 0.375025
vt 0.500000 0.500000
vt 0.375025 0.500000
vt 0.874925 0.375025
vt 0.999900 0.375025
vt 0.999900 0.500000
vt 0.874925 0.500000
vt 0.624975 0.375025
vt 0.749950 0.375025
vt 0.749950 0.500000
vt 0.624975 0.500000
vt 0.624975 0.125075
vt 0.749950 0.125075
vt 0.749950 0.250050
vt 0.624975 0.250050
vt 0.874925 0.125075
vt 0.999900 0.125075
vt 0.999900 0.250050
vt 0.874925 0.250050
vt 0.125075 0.375025
vt 0.250050 0.375025
vt 0.250050 0.500000
vt 0.125075 0.500000
vt 0.125075 0.125075
vt 0.250050 0.125075
vt 0.250050 0.250050
vt 0.125075 0.250050
vt 0.375025 0.125075
vt 0.500000 0.125075
vt 0.500000 0.250050
vt 0.375025 0.250050
vt 0.125075 0.874925
vt 0.250050 0.874925
vt 0.250050 0.999900
vt 0.125075 0.999900
vt 0.125075 0.624975
vt 0.250050 0.624975
vt 0.250050 0.749950
vt 0.125075 0.749950
vt 0.375025 0.624975
vt 0.500000 0.624975
vt 0.500000 0.749950
vt 0.375025 0.749950
vt 0.624975 0.874925
vt 0.749950 0.874925
vt 0.749950 0.999900
vt 0.624975 0.999900
vt 0.624975 0.624975
vt 0.749950 0.624975
vt 0.749950 0.749950
vt 0.624975 0.749950
vt 0.874925 0.624975
vt 0.999900 0.624975
vt 0.999900 0.749950
vt 0.874925 0.749950
vt 0.000100 0.624975
vt 0.000100 0.749950
vt 0.000100 0.500000
vt 0.000100 0.874925
vt 0.000100 0.999900
vt 0.250050 0.000100
vt 0.375025 0.000100
vt 0.500000 0.000100
vt 0.000100 0.125075
vt 0.000100 0.250050
vt 0.000100 0.000100
vt 0.125075 0.000100
vt 0.000100 0.375025
vt 0.749950 0.000100
vt 0.874925 0.000100
vt 0.999900 0.000100
vt 0.624975 0.000100
vn 0.000000 1.000000 0.000000
usemtl None
s off
f 81/1/1 28/2/1 4/3/1 45/4/1
f 80/5/1 34/6/1 8/7/1 41/8/1
f 79/9/1 35/10/1 9/11/1 48/12/1
f 78/13/1 32/14/1 7/15/1 49/16/1
f 77/17/1 50/18/1 21/19/1 37/20/1
f 76/21/1 51/22/1 22/23/1 52/24/1
f 75/25/1 44/26/1 16/27/1 53/28/1
f 74/29/1 54/30/1 20/31/1 36/32/1
f 73/33/1 55/34/1 23/35/1 56/36/1
f 72/37/1 47/38/1 19/39/1 57/40/1
f 71/41/1 58/42/1 13/43/1 29/44/1
f 70/45/1 59/46/1 24/47/1 60/48/1
f 69/49/1 46/50/1 18/51/1 61/52/1
f 68/53/1 62/54/1 17/55/1 33/56/1
f 67/57/1 63/58/1 25/59/1 64/60/1
f 66/61/1 40/62/1 12/63/1 65/64/1
f 63/58/1 66/61/1 65/64/1 25/59/1
f 21/19/1 49/16/1 66/61/1 63/58/1
f 49/16/1 7/15/1 40/62/1 66/61/1
f 46/50/1 67/57/1 64/60/1 18/51/1
f 9/11/1 37/20/1 67/57/1 46/50/1
f 37/20/1 21/19/1 63/58/1 67/57/1
f 34/6/1 68/53/1 33/56/1 8/7/1
f 18/51/1 64/60/1 68/53/1 34/6/1
f 64/60/1 25/59/1 62/54/1 68/53/1
f 59/46/1 69/49/1 61/52/1 24/47/1
f 20/31/1 48/12/1 69/49/1 59/46/1
f 48/12/1 9/11/1 46/50/1 69/49/1
f 30/65/1 70/45/1 60/48/1 14/66/1
f 5/67/1 36/32/1 70/45/1 30/65/1
f 36/32/1 20/31/1 59/46/1 70/45/1
f 42/68/1 71/41/1 29/44/1 3/69/1
f 14/66/1 60/48/1 71/41/1 42/68/1
f 60/48/1 24/47/1 58/42/1 71/41/1
f 55/34/1 72/37/1 57/40/1 23/35/1
f 15/70/1 31/71/1 72/37/1 55/34/1
f 31/71/1 6/72/1 47/38/1 72/37/1
f 26/73/1 73/33/1 56/36/1 10/74/1
f 1/75/1 43/76/1 73/33/1 26/73/1
f 43/76/1 15/70/1 55/34/1 73/33/1
f 38/77/1 74/29/1 36/32/1 5/67/1
f 10/74/1 56/36/1 74/29/1 38/77/1
f 56/36/1 23/35/1 54/30/1 74/29/1
f 51/22/1 75/25/1 53/28/1 22/23/1
f 11/78/1 27/79/1 75/25/1 51/22/1
f 27/79/1 2/80/1 44/26/1 75/25/1
f 47/38/1 76/21/1 52/24/1 19/39/1
f 6/72/1 39/81/1 76/21/1 47/38/1
f 39/81/1 11/78/1 51/22/1 76/21/1
f 35/10/1 77/17/1 37/20/1 9/11/1
f 19/39/1 52/24/1 77/17/1 35/10/1
f 52/24/1 22/23/1 50/18/1 77/17/1
f 50/18/1 78/13/1 49/16/1 21/19/1
f 22/23/1 53/28/1 78/13/1 50/18/1
f 53/28/1 16/27/1 32/14/1 78/13/1
f 54/30/1 79/9/1 48/12/1 20/31/1
f 23/35/1 57/40/1 79/9/1 54/30/1
f 57/40/1 19/39/1 35/10/1 79/9/1
f 58/42/1 80/5/1 41/8/1 13/43/1
f 24/47/1 61/52/1 80/5/1 58/42/1
f 61/52/1 18/51/1 34/6/1 80/5/1
f 62/54/1 81/1/1 45/4/1 17/55/1
f 25/59/1 65/64/1 81/1/1 62/54/1
f 65/64/1 12/63/1 28/2/1 81/1/1
